<?xml version="1.0" encoding="utf-8"?>
<svg xmlns="http://www.w3.org/2000/svg" xmlns:xlink="http://www.w3.org/1999/xlink" style="margin: auto; background: rgb(255, 255, 255); display: block; shape-rendering: auto;" width="204px" height="204px" viewBox="0 0 100 100" preserveAspectRatio="xMidYMid">
<g transform="rotate(0 50 50)">
  <rect x="47" y="27" rx="2.2800000000000002" ry="2.2800000000000002" width="6" height="12" fill="#20c997">
    <animate attributeName="opacity" values="1;0" keyTimes="0;1" dur="1.1363636363636365s" begin="-1.1198945981554678s" repeatCount="indefinite"></animate>
  </rect>
</g><g transform="rotate(5.217391304347826 50 50)">
  <rect x="47" y="27" rx="2.2800000000000002" ry="2.2800000000000002" width="6" height="12" fill="#20c997">
    <animate attributeName="opacity" values="1;0" keyTimes="0;1" dur="1.1363636363636365s" begin="-1.103425559947299s" repeatCount="indefinite"></animate>
  </rect>
</g><g transform="rotate(10.434782608695652 50 50)">
  <rect x="47" y="27" rx="2.2800000000000002" ry="2.2800000000000002" width="6" height="12" fill="#20c997">
    <animate attributeName="opacity" values="1;0" keyTimes="0;1" dur="1.1363636363636365s" begin="-1.0869565217391304s" repeatCount="indefinite"></animate>
  </rect>
</g><g transform="rotate(15.652173913043478 50 50)">
  <rect x="47" y="27" rx="2.2800000000000002" ry="2.2800000000000002" width="6" height="12" fill="#20c997">
    <animate attributeName="opacity" values="1;0" keyTimes="0;1" dur="1.1363636363636365s" begin="-1.070487483530962s" repeatCount="indefinite"></animate>
  </rect>
</g><g transform="rotate(20.869565217391305 50 50)">
  <rect x="47" y="27" rx="2.2800000000000002" ry="2.2800000000000002" width="6" height="12" fill="#20c997">
    <animate attributeName="opacity" values="1;0" keyTimes="0;1" dur="1.1363636363636365s" begin="-1.0540184453227932s" repeatCount="indefinite"></animate>
  </rect>
</g><g transform="rotate(26.08695652173913 50 50)">
  <rect x="47" y="27" rx="2.2800000000000002" ry="2.2800000000000002" width="6" height="12" fill="#20c997">
    <animate attributeName="opacity" values="1;0" keyTimes="0;1" dur="1.1363636363636365s" begin="-1.0375494071146245s" repeatCount="indefinite"></animate>
  </rect>
</g><g transform="rotate(31.304347826086957 50 50)">
  <rect x="47" y="27" rx="2.2800000000000002" ry="2.2800000000000002" width="6" height="12" fill="#20c997">
    <animate attributeName="opacity" values="1;0" keyTimes="0;1" dur="1.1363636363636365s" begin="-1.0210803689064558s" repeatCount="indefinite"></animate>
  </rect>
</g><g transform="rotate(36.52173913043478 50 50)">
  <rect x="47" y="27" rx="2.2800000000000002" ry="2.2800000000000002" width="6" height="12" fill="#20c997">
    <animate attributeName="opacity" values="1;0" keyTimes="0;1" dur="1.1363636363636365s" begin="-1.0046113306982873s" repeatCount="indefinite"></animate>
  </rect>
</g><g transform="rotate(41.73913043478261 50 50)">
  <rect x="47" y="27" rx="2.2800000000000002" ry="2.2800000000000002" width="6" height="12" fill="#20c997">
    <animate attributeName="opacity" values="1;0" keyTimes="0;1" dur="1.1363636363636365s" begin="-0.9881422924901186s" repeatCount="indefinite"></animate>
  </rect>
</g><g transform="rotate(46.95652173913044 50 50)">
  <rect x="47" y="27" rx="2.2800000000000002" ry="2.2800000000000002" width="6" height="12" fill="#20c997">
    <animate attributeName="opacity" values="1;0" keyTimes="0;1" dur="1.1363636363636365s" begin="-0.97167325428195s" repeatCount="indefinite"></animate>
  </rect>
</g><g transform="rotate(52.17391304347826 50 50)">
  <rect x="47" y="27" rx="2.2800000000000002" ry="2.2800000000000002" width="6" height="12" fill="#20c997">
    <animate attributeName="opacity" values="1;0" keyTimes="0;1" dur="1.1363636363636365s" begin="-0.9552042160737813s" repeatCount="indefinite"></animate>
  </rect>
</g><g transform="rotate(57.391304347826086 50 50)">
  <rect x="47" y="27" rx="2.2800000000000002" ry="2.2800000000000002" width="6" height="12" fill="#20c997">
    <animate attributeName="opacity" values="1;0" keyTimes="0;1" dur="1.1363636363636365s" begin="-0.9387351778656127s" repeatCount="indefinite"></animate>
  </rect>
</g><g transform="rotate(62.608695652173914 50 50)">
  <rect x="47" y="27" rx="2.2800000000000002" ry="2.2800000000000002" width="6" height="12" fill="#20c997">
    <animate attributeName="opacity" values="1;0" keyTimes="0;1" dur="1.1363636363636365s" begin="-0.922266139657444s" repeatCount="indefinite"></animate>
  </rect>
</g><g transform="rotate(67.82608695652173 50 50)">
  <rect x="47" y="27" rx="2.2800000000000002" ry="2.2800000000000002" width="6" height="12" fill="#20c997">
    <animate attributeName="opacity" values="1;0" keyTimes="0;1" dur="1.1363636363636365s" begin="-0.9057971014492754s" repeatCount="indefinite"></animate>
  </rect>
</g><g transform="rotate(73.04347826086956 50 50)">
  <rect x="47" y="27" rx="2.2800000000000002" ry="2.2800000000000002" width="6" height="12" fill="#20c997">
    <animate attributeName="opacity" values="1;0" keyTimes="0;1" dur="1.1363636363636365s" begin="-0.8893280632411067s" repeatCount="indefinite"></animate>
  </rect>
</g><g transform="rotate(78.26086956521739 50 50)">
  <rect x="47" y="27" rx="2.2800000000000002" ry="2.2800000000000002" width="6" height="12" fill="#20c997">
    <animate attributeName="opacity" values="1;0" keyTimes="0;1" dur="1.1363636363636365s" begin="-0.8728590250329381s" repeatCount="indefinite"></animate>
  </rect>
</g><g transform="rotate(83.47826086956522 50 50)">
  <rect x="47" y="27" rx="2.2800000000000002" ry="2.2800000000000002" width="6" height="12" fill="#20c997">
    <animate attributeName="opacity" values="1;0" keyTimes="0;1" dur="1.1363636363636365s" begin="-0.8563899868247694s" repeatCount="indefinite"></animate>
  </rect>
</g><g transform="rotate(88.69565217391305 50 50)">
  <rect x="47" y="27" rx="2.2800000000000002" ry="2.2800000000000002" width="6" height="12" fill="#20c997">
    <animate attributeName="opacity" values="1;0" keyTimes="0;1" dur="1.1363636363636365s" begin="-0.8399209486166008s" repeatCount="indefinite"></animate>
  </rect>
</g><g transform="rotate(93.91304347826087 50 50)">
  <rect x="47" y="27" rx="2.2800000000000002" ry="2.2800000000000002" width="6" height="12" fill="#20c997">
    <animate attributeName="opacity" values="1;0" keyTimes="0;1" dur="1.1363636363636365s" begin="-0.8234519104084321s" repeatCount="indefinite"></animate>
  </rect>
</g><g transform="rotate(99.1304347826087 50 50)">
  <rect x="47" y="27" rx="2.2800000000000002" ry="2.2800000000000002" width="6" height="12" fill="#20c997">
    <animate attributeName="opacity" values="1;0" keyTimes="0;1" dur="1.1363636363636365s" begin="-0.8069828722002635s" repeatCount="indefinite"></animate>
  </rect>
</g><g transform="rotate(104.34782608695652 50 50)">
  <rect x="47" y="27" rx="2.2800000000000002" ry="2.2800000000000002" width="6" height="12" fill="#20c997">
    <animate attributeName="opacity" values="1;0" keyTimes="0;1" dur="1.1363636363636365s" begin="-0.7905138339920948s" repeatCount="indefinite"></animate>
  </rect>
</g><g transform="rotate(109.56521739130434 50 50)">
  <rect x="47" y="27" rx="2.2800000000000002" ry="2.2800000000000002" width="6" height="12" fill="#20c997">
    <animate attributeName="opacity" values="1;0" keyTimes="0;1" dur="1.1363636363636365s" begin="-0.7740447957839263s" repeatCount="indefinite"></animate>
  </rect>
</g><g transform="rotate(114.78260869565217 50 50)">
  <rect x="47" y="27" rx="2.2800000000000002" ry="2.2800000000000002" width="6" height="12" fill="#20c997">
    <animate attributeName="opacity" values="1;0" keyTimes="0;1" dur="1.1363636363636365s" begin="-0.7575757575757576s" repeatCount="indefinite"></animate>
  </rect>
</g><g transform="rotate(120 50 50)">
  <rect x="47" y="27" rx="2.2800000000000002" ry="2.2800000000000002" width="6" height="12" fill="#20c997">
    <animate attributeName="opacity" values="1;0" keyTimes="0;1" dur="1.1363636363636365s" begin="-0.741106719367589s" repeatCount="indefinite"></animate>
  </rect>
</g><g transform="rotate(125.21739130434783 50 50)">
  <rect x="47" y="27" rx="2.2800000000000002" ry="2.2800000000000002" width="6" height="12" fill="#20c997">
    <animate attributeName="opacity" values="1;0" keyTimes="0;1" dur="1.1363636363636365s" begin="-0.7246376811594203s" repeatCount="indefinite"></animate>
  </rect>
</g><g transform="rotate(130.43478260869566 50 50)">
  <rect x="47" y="27" rx="2.2800000000000002" ry="2.2800000000000002" width="6" height="12" fill="#20c997">
    <animate attributeName="opacity" values="1;0" keyTimes="0;1" dur="1.1363636363636365s" begin="-0.7081686429512517s" repeatCount="indefinite"></animate>
  </rect>
</g><g transform="rotate(135.65217391304347 50 50)">
  <rect x="47" y="27" rx="2.2800000000000002" ry="2.2800000000000002" width="6" height="12" fill="#20c997">
    <animate attributeName="opacity" values="1;0" keyTimes="0;1" dur="1.1363636363636365s" begin="-0.691699604743083s" repeatCount="indefinite"></animate>
  </rect>
</g><g transform="rotate(140.8695652173913 50 50)">
  <rect x="47" y="27" rx="2.2800000000000002" ry="2.2800000000000002" width="6" height="12" fill="#20c997">
    <animate attributeName="opacity" values="1;0" keyTimes="0;1" dur="1.1363636363636365s" begin="-0.6752305665349144s" repeatCount="indefinite"></animate>
  </rect>
</g><g transform="rotate(146.08695652173913 50 50)">
  <rect x="47" y="27" rx="2.2800000000000002" ry="2.2800000000000002" width="6" height="12" fill="#20c997">
    <animate attributeName="opacity" values="1;0" keyTimes="0;1" dur="1.1363636363636365s" begin="-0.6587615283267457s" repeatCount="indefinite"></animate>
  </rect>
</g><g transform="rotate(151.30434782608697 50 50)">
  <rect x="47" y="27" rx="2.2800000000000002" ry="2.2800000000000002" width="6" height="12" fill="#20c997">
    <animate attributeName="opacity" values="1;0" keyTimes="0;1" dur="1.1363636363636365s" begin="-0.6422924901185771s" repeatCount="indefinite"></animate>
  </rect>
</g><g transform="rotate(156.52173913043478 50 50)">
  <rect x="47" y="27" rx="2.2800000000000002" ry="2.2800000000000002" width="6" height="12" fill="#20c997">
    <animate attributeName="opacity" values="1;0" keyTimes="0;1" dur="1.1363636363636365s" begin="-0.6258234519104084s" repeatCount="indefinite"></animate>
  </rect>
</g><g transform="rotate(161.7391304347826 50 50)">
  <rect x="47" y="27" rx="2.2800000000000002" ry="2.2800000000000002" width="6" height="12" fill="#20c997">
    <animate attributeName="opacity" values="1;0" keyTimes="0;1" dur="1.1363636363636365s" begin="-0.6093544137022397s" repeatCount="indefinite"></animate>
  </rect>
</g><g transform="rotate(166.95652173913044 50 50)">
  <rect x="47" y="27" rx="2.2800000000000002" ry="2.2800000000000002" width="6" height="12" fill="#20c997">
    <animate attributeName="opacity" values="1;0" keyTimes="0;1" dur="1.1363636363636365s" begin="-0.5928853754940712s" repeatCount="indefinite"></animate>
  </rect>
</g><g transform="rotate(172.17391304347825 50 50)">
  <rect x="47" y="27" rx="2.2800000000000002" ry="2.2800000000000002" width="6" height="12" fill="#20c997">
    <animate attributeName="opacity" values="1;0" keyTimes="0;1" dur="1.1363636363636365s" begin="-0.5764163372859025s" repeatCount="indefinite"></animate>
  </rect>
</g><g transform="rotate(177.3913043478261 50 50)">
  <rect x="47" y="27" rx="2.2800000000000002" ry="2.2800000000000002" width="6" height="12" fill="#20c997">
    <animate attributeName="opacity" values="1;0" keyTimes="0;1" dur="1.1363636363636365s" begin="-0.5599472990777339s" repeatCount="indefinite"></animate>
  </rect>
</g><g transform="rotate(182.6086956521739 50 50)">
  <rect x="47" y="27" rx="2.2800000000000002" ry="2.2800000000000002" width="6" height="12" fill="#20c997">
    <animate attributeName="opacity" values="1;0" keyTimes="0;1" dur="1.1363636363636365s" begin="-0.5434782608695652s" repeatCount="indefinite"></animate>
  </rect>
</g><g transform="rotate(187.82608695652175 50 50)">
  <rect x="47" y="27" rx="2.2800000000000002" ry="2.2800000000000002" width="6" height="12" fill="#20c997">
    <animate attributeName="opacity" values="1;0" keyTimes="0;1" dur="1.1363636363636365s" begin="-0.5270092226613966s" repeatCount="indefinite"></animate>
  </rect>
</g><g transform="rotate(193.04347826086956 50 50)">
  <rect x="47" y="27" rx="2.2800000000000002" ry="2.2800000000000002" width="6" height="12" fill="#20c997">
    <animate attributeName="opacity" values="1;0" keyTimes="0;1" dur="1.1363636363636365s" begin="-0.5105401844532279s" repeatCount="indefinite"></animate>
  </rect>
</g><g transform="rotate(198.2608695652174 50 50)">
  <rect x="47" y="27" rx="2.2800000000000002" ry="2.2800000000000002" width="6" height="12" fill="#20c997">
    <animate attributeName="opacity" values="1;0" keyTimes="0;1" dur="1.1363636363636365s" begin="-0.4940711462450593s" repeatCount="indefinite"></animate>
  </rect>
</g><g transform="rotate(203.47826086956522 50 50)">
  <rect x="47" y="27" rx="2.2800000000000002" ry="2.2800000000000002" width="6" height="12" fill="#20c997">
    <animate attributeName="opacity" values="1;0" keyTimes="0;1" dur="1.1363636363636365s" begin="-0.4776021080368906s" repeatCount="indefinite"></animate>
  </rect>
</g><g transform="rotate(208.69565217391303 50 50)">
  <rect x="47" y="27" rx="2.2800000000000002" ry="2.2800000000000002" width="6" height="12" fill="#20c997">
    <animate attributeName="opacity" values="1;0" keyTimes="0;1" dur="1.1363636363636365s" begin="-0.461133069828722s" repeatCount="indefinite"></animate>
  </rect>
</g><g transform="rotate(213.91304347826087 50 50)">
  <rect x="47" y="27" rx="2.2800000000000002" ry="2.2800000000000002" width="6" height="12" fill="#20c997">
    <animate attributeName="opacity" values="1;0" keyTimes="0;1" dur="1.1363636363636365s" begin="-0.44466403162055335s" repeatCount="indefinite"></animate>
  </rect>
</g><g transform="rotate(219.1304347826087 50 50)">
  <rect x="47" y="27" rx="2.2800000000000002" ry="2.2800000000000002" width="6" height="12" fill="#20c997">
    <animate attributeName="opacity" values="1;0" keyTimes="0;1" dur="1.1363636363636365s" begin="-0.4281949934123847s" repeatCount="indefinite"></animate>
  </rect>
</g><g transform="rotate(224.34782608695653 50 50)">
  <rect x="47" y="27" rx="2.2800000000000002" ry="2.2800000000000002" width="6" height="12" fill="#20c997">
    <animate attributeName="opacity" values="1;0" keyTimes="0;1" dur="1.1363636363636365s" begin="-0.41172595520421607s" repeatCount="indefinite"></animate>
  </rect>
</g><g transform="rotate(229.56521739130434 50 50)">
  <rect x="47" y="27" rx="2.2800000000000002" ry="2.2800000000000002" width="6" height="12" fill="#20c997">
    <animate attributeName="opacity" values="1;0" keyTimes="0;1" dur="1.1363636363636365s" begin="-0.3952569169960474s" repeatCount="indefinite"></animate>
  </rect>
</g><g transform="rotate(234.7826086956522 50 50)">
  <rect x="47" y="27" rx="2.2800000000000002" ry="2.2800000000000002" width="6" height="12" fill="#20c997">
    <animate attributeName="opacity" values="1;0" keyTimes="0;1" dur="1.1363636363636365s" begin="-0.3787878787878788s" repeatCount="indefinite"></animate>
  </rect>
</g><g transform="rotate(240 50 50)">
  <rect x="47" y="27" rx="2.2800000000000002" ry="2.2800000000000002" width="6" height="12" fill="#20c997">
    <animate attributeName="opacity" values="1;0" keyTimes="0;1" dur="1.1363636363636365s" begin="-0.36231884057971014s" repeatCount="indefinite"></animate>
  </rect>
</g><g transform="rotate(245.2173913043478 50 50)">
  <rect x="47" y="27" rx="2.2800000000000002" ry="2.2800000000000002" width="6" height="12" fill="#20c997">
    <animate attributeName="opacity" values="1;0" keyTimes="0;1" dur="1.1363636363636365s" begin="-0.3458498023715415s" repeatCount="indefinite"></animate>
  </rect>
</g><g transform="rotate(250.43478260869566 50 50)">
  <rect x="47" y="27" rx="2.2800000000000002" ry="2.2800000000000002" width="6" height="12" fill="#20c997">
    <animate attributeName="opacity" values="1;0" keyTimes="0;1" dur="1.1363636363636365s" begin="-0.32938076416337286s" repeatCount="indefinite"></animate>
  </rect>
</g><g transform="rotate(255.65217391304347 50 50)">
  <rect x="47" y="27" rx="2.2800000000000002" ry="2.2800000000000002" width="6" height="12" fill="#20c997">
    <animate attributeName="opacity" values="1;0" keyTimes="0;1" dur="1.1363636363636365s" begin="-0.3129117259552042s" repeatCount="indefinite"></animate>
  </rect>
</g><g transform="rotate(260.8695652173913 50 50)">
  <rect x="47" y="27" rx="2.2800000000000002" ry="2.2800000000000002" width="6" height="12" fill="#20c997">
    <animate attributeName="opacity" values="1;0" keyTimes="0;1" dur="1.1363636363636365s" begin="-0.2964426877470356s" repeatCount="indefinite"></animate>
  </rect>
</g><g transform="rotate(266.0869565217391 50 50)">
  <rect x="47" y="27" rx="2.2800000000000002" ry="2.2800000000000002" width="6" height="12" fill="#20c997">
    <animate attributeName="opacity" values="1;0" keyTimes="0;1" dur="1.1363636363636365s" begin="-0.27997364953886694s" repeatCount="indefinite"></animate>
  </rect>
</g><g transform="rotate(271.30434782608694 50 50)">
  <rect x="47" y="27" rx="2.2800000000000002" ry="2.2800000000000002" width="6" height="12" fill="#20c997">
    <animate attributeName="opacity" values="1;0" keyTimes="0;1" dur="1.1363636363636365s" begin="-0.2635046113306983s" repeatCount="indefinite"></animate>
  </rect>
</g><g transform="rotate(276.5217391304348 50 50)">
  <rect x="47" y="27" rx="2.2800000000000002" ry="2.2800000000000002" width="6" height="12" fill="#20c997">
    <animate attributeName="opacity" values="1;0" keyTimes="0;1" dur="1.1363636363636365s" begin="-0.24703557312252966s" repeatCount="indefinite"></animate>
  </rect>
</g><g transform="rotate(281.7391304347826 50 50)">
  <rect x="47" y="27" rx="2.2800000000000002" ry="2.2800000000000002" width="6" height="12" fill="#20c997">
    <animate attributeName="opacity" values="1;0" keyTimes="0;1" dur="1.1363636363636365s" begin="-0.230566534914361s" repeatCount="indefinite"></animate>
  </rect>
</g><g transform="rotate(286.95652173913044 50 50)">
  <rect x="47" y="27" rx="2.2800000000000002" ry="2.2800000000000002" width="6" height="12" fill="#20c997">
    <animate attributeName="opacity" values="1;0" keyTimes="0;1" dur="1.1363636363636365s" begin="-0.21409749670619235s" repeatCount="indefinite"></animate>
  </rect>
</g><g transform="rotate(292.17391304347825 50 50)">
  <rect x="47" y="27" rx="2.2800000000000002" ry="2.2800000000000002" width="6" height="12" fill="#20c997">
    <animate attributeName="opacity" values="1;0" keyTimes="0;1" dur="1.1363636363636365s" begin="-0.1976284584980237s" repeatCount="indefinite"></animate>
  </rect>
</g><g transform="rotate(297.39130434782606 50 50)">
  <rect x="47" y="27" rx="2.2800000000000002" ry="2.2800000000000002" width="6" height="12" fill="#20c997">
    <animate attributeName="opacity" values="1;0" keyTimes="0;1" dur="1.1363636363636365s" begin="-0.18115942028985507s" repeatCount="indefinite"></animate>
  </rect>
</g><g transform="rotate(302.60869565217394 50 50)">
  <rect x="47" y="27" rx="2.2800000000000002" ry="2.2800000000000002" width="6" height="12" fill="#20c997">
    <animate attributeName="opacity" values="1;0" keyTimes="0;1" dur="1.1363636363636365s" begin="-0.16469038208168643s" repeatCount="indefinite"></animate>
  </rect>
</g><g transform="rotate(307.82608695652175 50 50)">
  <rect x="47" y="27" rx="2.2800000000000002" ry="2.2800000000000002" width="6" height="12" fill="#20c997">
    <animate attributeName="opacity" values="1;0" keyTimes="0;1" dur="1.1363636363636365s" begin="-0.1482213438735178s" repeatCount="indefinite"></animate>
  </rect>
</g><g transform="rotate(313.04347826086956 50 50)">
  <rect x="47" y="27" rx="2.2800000000000002" ry="2.2800000000000002" width="6" height="12" fill="#20c997">
    <animate attributeName="opacity" values="1;0" keyTimes="0;1" dur="1.1363636363636365s" begin="-0.13175230566534915s" repeatCount="indefinite"></animate>
  </rect>
</g><g transform="rotate(318.2608695652174 50 50)">
  <rect x="47" y="27" rx="2.2800000000000002" ry="2.2800000000000002" width="6" height="12" fill="#20c997">
    <animate attributeName="opacity" values="1;0" keyTimes="0;1" dur="1.1363636363636365s" begin="-0.1152832674571805s" repeatCount="indefinite"></animate>
  </rect>
</g><g transform="rotate(323.4782608695652 50 50)">
  <rect x="47" y="27" rx="2.2800000000000002" ry="2.2800000000000002" width="6" height="12" fill="#20c997">
    <animate attributeName="opacity" values="1;0" keyTimes="0;1" dur="1.1363636363636365s" begin="-0.09881422924901186s" repeatCount="indefinite"></animate>
  </rect>
</g><g transform="rotate(328.69565217391306 50 50)">
  <rect x="47" y="27" rx="2.2800000000000002" ry="2.2800000000000002" width="6" height="12" fill="#20c997">
    <animate attributeName="opacity" values="1;0" keyTimes="0;1" dur="1.1363636363636365s" begin="-0.08234519104084322s" repeatCount="indefinite"></animate>
  </rect>
</g><g transform="rotate(333.9130434782609 50 50)">
  <rect x="47" y="27" rx="2.2800000000000002" ry="2.2800000000000002" width="6" height="12" fill="#20c997">
    <animate attributeName="opacity" values="1;0" keyTimes="0;1" dur="1.1363636363636365s" begin="-0.06587615283267458s" repeatCount="indefinite"></animate>
  </rect>
</g><g transform="rotate(339.1304347826087 50 50)">
  <rect x="47" y="27" rx="2.2800000000000002" ry="2.2800000000000002" width="6" height="12" fill="#20c997">
    <animate attributeName="opacity" values="1;0" keyTimes="0;1" dur="1.1363636363636365s" begin="-0.04940711462450593s" repeatCount="indefinite"></animate>
  </rect>
</g><g transform="rotate(344.3478260869565 50 50)">
  <rect x="47" y="27" rx="2.2800000000000002" ry="2.2800000000000002" width="6" height="12" fill="#20c997">
    <animate attributeName="opacity" values="1;0" keyTimes="0;1" dur="1.1363636363636365s" begin="-0.03293807641633729s" repeatCount="indefinite"></animate>
  </rect>
</g><g transform="rotate(349.5652173913044 50 50)">
  <rect x="47" y="27" rx="2.2800000000000002" ry="2.2800000000000002" width="6" height="12" fill="#20c997">
    <animate attributeName="opacity" values="1;0" keyTimes="0;1" dur="1.1363636363636365s" begin="-0.016469038208168644s" repeatCount="indefinite"></animate>
  </rect>
</g><g transform="rotate(354.7826086956522 50 50)">
  <rect x="47" y="27" rx="2.2800000000000002" ry="2.2800000000000002" width="6" height="12" fill="#20c997">
    <animate attributeName="opacity" values="1;0" keyTimes="0;1" dur="1.1363636363636365s" begin="0s" repeatCount="indefinite"></animate>
  </rect>
</g>
<!-- [ldio] generated by https://loading.io/ --></svg>